PathFileType	4	(X/Y/Z)	c:/Users/goper/Files/vsCode/490R/osim_files/C08/C08_SSWS_02.trc
DataRate	CameraRate	NumFrames	NumMarkers	Units                	OrigDataRate	OrigDataStartFrame	OrigNumFrames
250.00	250.00	6	36	mm	250.0	1679	2686
                Frame#	Time	LPSIS			LASIS			LTH1			LTH2			LTH3			LTH4			LLFE			LMFE			LSH1			LSH2			LSH3			LSH4			LLMAL			LMMAL			LCAL			LMTP5			LTOE			LMTP1			RPSIS			RASIS			RTH1			RTH2			RTH3			RTH4			RLFE			RMFE			RSH1			RSH2			RSH3			RSH4			RLMAL			RMMAL			RCAL			RMTP1			RTOE			RMTP5		
		X1	Y1	Z1	X2	Y2	Z2	X3	Y3	Z3	X4	Y4	Z4	X5	Y5	Z5	X6	Y6	Z6	X7	Y7	Z7	X8	Y8	Z8	X9	Y9	Z9	X10	Y10	Z10	X11	Y11	Z11	X12	Y12	Z12	X13	Y13	Z13	X14	Y14	Z14	X15	Y15	Z15	X16	Y16	Z16	X17	Y17	Z17	X18	Y18	Z18	X19	Y19	Z19	X20	Y20	Z20	X21	Y21	Z21	X22	Y22	Z22	X23	Y23	Z23	X24	Y24	Z24	X25	Y25	Z25	X26	Y26	Z26	X27	Y27	Z27	X28	Y28	Z28	X29	Y29	Z29	X30	Y30	Z30	X31	Y31	Z31	X32	Y32	Z32	X33	Y33	Z33	X34	Y34	Z34	X35	Y35	Z35	X36	Y36	Z36

1679	6.71200	-1536.53394	1031.81726	197.96417	-1735.25928	991.08502	294.46317	-1628.35266	711.69672	367.26917	-1628.09448	633.48413	356.29077	-1627.73645	559.14813	354.15509	-1707.99353	638.23108	348.70071	-1621.31177	510.85184	348.03079	-1655.82922	489.42966	224.02832	-1512.42798	452.31427	351.37769	-1484.11865	414.62711	350.56253	-1557.23730	411.11407	358.45236	-1523.22168	380.18747	354.18604	-1302.69678	217.57530	293.26923	-1331.36707	202.76802	208.79454	-1254.75720	256.71948	232.67703	-1313.36694	86.59431	322.14969	-1372.77625	57.47980	267.27264	-1341.76660	69.48914	213.55737	-1541.14636	1031.62292	137.82970	-1745.92505	1007.43134	61.97281	-1733.45715	743.35828	-4.35945	-1752.96106	668.22064	15.63899	-1771.51208	592.08447	22.85585	-1821.38049	690.87366	46.65931	-1787.23608	523.08734	43.76033	-1776.92273	515.59650	167.52444	-1743.74829	433.28284	21.49674	-1754.55713	389.69830	18.07067	-1803.83435	439.39490	35.85951	-1806.43250	394.97391	30.64169	-1765.89612	93.62796	80.51005	-1794.14673	99.64462	170.26059	-1709.59900	71.40071	151.56201	-1925.52991	44.78137	160.75383	-1942.56348	64.47572	106.86409	-1892.47217	42.94436	47.57782
1680	6.71600	-1541.04126	1031.94861	197.46837	-1739.55811	991.15265	293.88028	-1635.19421	711.60260	367.09967	-1635.78870	633.33765	356.41968	-1636.10681	558.98749	354.58334	-1715.64685	638.80786	349.16150	-1630.29419	510.80807	348.70270	-1665.83008	489.47729	224.39272	-1521.74011	453.07434	351.72888	-1493.20483	415.77664	350.92798	-1566.25330	411.57074	358.81931	-1532.04163	380.96338	354.44836	-1309.59216	221.17401	293.12228	-1338.45801	205.72258	208.74187	-1262.57007	260.87799	232.14169	-1318.05542	90.04285	322.19052	-1377.16309	59.21988	267.94028	-1346.75610	71.94296	213.96045	-1545.67688	1031.83350	137.38686	-1750.41565	1008.17395	61.26570	-1737.00806	743.42548	-4.80050	-1755.99194	668.11914	15.30107	-1774.18054	591.83191	22.82508	-1824.65833	690.32172	45.89718	-1789.96436	522.70648	43.43606	-1779.57471	515.30017	167.22185	-1746.06946	433.28729	21.21464	-1756.55420	389.62695	17.81006	-1806.11011	439.02451	35.62171	-1808.57068	394.58948	30.43868	-1766.08691	93.65552	80.54664	-1794.34863	99.63946	170.32306	-1709.46826	71.75163	151.43727	-1925.64355	44.66184	160.83438	-1942.68164	64.17278	106.92102	-1892.57361	42.89356	47.57381
1681	6.72000	-1545.58167	1032.07922	196.89330	-1743.97913	991.23193	293.24115	-1641.94373	711.63745	366.91852	-1643.12219	633.38580	356.31339	-1644.52209	558.97595	354.95889	-1723.41748	639.46185	350.00549	-1638.76489	510.75208	349.20374	-1675.62817	489.82504	224.59549	-1531.26038	454.03665	352.08029	-1502.27539	417.03934	351.25430	-1575.39954	412.14337	359.14084	-1540.87939	381.87396	354.64536	-1316.51562	224.70448	292.88351	-1345.63196	208.60677	208.64032	-1270.25085	264.85040	231.54851	-1323.17773	93.51403	322.39471	-1382.24976	61.52573	268.62900	-1352.23816	74.60123	214.49147	-1550.22266	1032.12708	136.84401	-1754.94434	1008.87891	60.64939	-1740.46350	743.43542	-5.28091	-1758.22473	667.58820	15.29546	-1776.90125	591.66559	22.89330	-1827.97058	689.81213	45.18279	-1792.57336	522.38593	43.13359	-1782.00110	515.01166	166.82373	-1748.15051	433.22968	20.95677	-1758.42700	389.53250	17.57405	-1808.29541	438.66666	35.39844	-1810.45422	394.20688	30.28244	-1766.25452	93.70502	80.58946	-1794.65247	99.57320	169.54767	-1709.74524	71.69465	151.49706	-1925.78589	44.57464	160.88864	-1942.78149	63.89803	106.91757	-1892.63977	42.82421	47.55468
1682	6.72400	-1550.12939	1032.21252	196.25003	-1748.31946	991.32629	292.71835	-1648.69165	711.74261	366.73471	-1650.98218	633.50598	356.55399	-1652.89282	559.09100	355.22879	-1731.01184	640.25714	350.43582	-1647.97058	510.66409	349.14130	-1685.12146	490.34775	224.75063	-1540.70996	455.09897	352.25943	-1511.47021	418.36646	351.53119	-1584.51819	412.86938	359.30469	-1549.77734	382.95895	354.79413	-1323.61230	228.12132	292.57126	-1352.95251	211.38515	208.54790	-1278.06396	268.50363	230.78952	-1328.85864	97.11632	322.74869	-1387.90759	64.23389	269.43835	-1358.34937	77.37782	215.03909	-1554.78809	1032.49927	136.31563	-1759.47327	1009.41962	59.97927	-1743.88159	743.43372	-5.82339	-1761.17883	667.51648	14.83690	-1779.56616	591.47412	23.06401	-1831.16467	689.38013	44.51000	-1794.98120	522.09363	42.79273	-1784.32776	514.75525	166.53725	-1750.12366	433.20874	20.75559	-1760.15039	389.43622	17.41821	-1810.26233	438.35193	35.12973	-1812.20947	393.85367	30.11982	-1766.42883	93.74924	80.62469	-1794.68469	99.64271	170.41125	-1709.78137	71.83457	151.40112	-1925.92395	44.51781	160.94543	-1942.90662	63.66589	106.95241	-1892.97900	42.84198	47.46432
1683	6.72800	-1554.62231	1032.39758	195.49443	-1752.66162	991.45355	292.13583	-1655.37732	712.02197	366.50537	-1658.58008	633.77838	356.62158	-1661.24341	559.36389	355.47577	-1738.59851	641.21753	350.90344	-1656.84473	511.00931	349.42044	-1694.55200	491.09192	224.87051	-1550.11060	456.26163	352.28372	-1520.33716	419.66580	351.59616	-1593.60608	413.74368	359.46124	-1558.64600	384.12695	354.89041	-1330.79517	231.61067	292.24496	-1360.54163	214.24013	208.43292	-1285.88391	271.97870	230.00708	-1335.19250	100.77737	323.11011	-1394.22461	67.04550	270.26767	-1365.05139	80.16056	215.65398	-1559.27771	1032.83301	135.62427	-1764.00098	1009.85352	59.34835	-1747.23694	743.61932	-6.23719	-1764.05444	667.50110	14.42054	-1782.15063	591.43378	22.94261	-1834.28625	689.02686	43.87024	-1797.25232	521.85968	42.48658	-1786.48291	514.61914	166.23738	-1751.92114	433.21472	20.60165	-1761.70923	389.41373	17.27206	-1812.05627	438.06979	34.88468	-1813.81592	393.56699	29.87777	-1766.58386	93.79005	80.64773	-1794.85156	99.68864	170.42957	-1709.60217	72.10918	151.28879	-1926.03784	44.47564	160.94659	-1943.03430	63.45797	106.92701	-1893.02649	42.77575	47.40841
1684	6.73200	-1559.08838	1032.62317	194.71173	-1756.89490	991.52515	291.60364	-1661.94543	712.36804	366.28427	-1666.15564	634.16071	356.57962	-1669.46350	559.69836	355.66739	-1746.04102	642.20709	351.32535	-1665.66052	511.40659	349.64246	-1703.82788	491.90796	224.97461	-1559.28418	457.43472	352.30014	-1529.50244	421.36194	351.92218	-1602.63916	414.79715	359.55234	-1567.54846	385.34720	355.13776	-1338.33411	235.02144	291.90689	-1368.33447	217.04301	208.30190	-1293.62634	275.21735	229.16606	-1342.08350	104.38664	323.43930	-1401.13770	69.72617	271.11853	-1372.23218	82.84669	216.33780	-1563.79797	1033.19055	134.81125	-1768.53137	1010.20166	58.71178	-1751.33264	743.80542	-7.04660	-1766.88953	667.52570	13.94442	-1784.62500	591.36023	22.63968	-1837.33862	688.68341	43.25055	-1799.40466	521.71753	42.15953	-1788.54517	514.58044	166.01656	-1753.55750	433.22211	20.45658	-1763.14270	389.42535	17.09023	-1813.74780	437.83209	34.63076	-1815.29736	393.34534	29.64848	-1766.70020	93.79250	80.67389	-1795.01343	99.75823	170.42436	-1709.65198	72.19920	151.26347	-1926.13782	44.45009	160.94283	-1943.08069	63.26015	106.92859	-1893.08423	42.69673	47.41067
